# xmcd
#
# Track frame offsets:
#	150
#	14980
#	29737
#	44437
#	68382
#	83152
#	93517
#	106880
#	122827
#	135507
#	149740
#	162700
#
# Disc length: 2369
#
# Revision: 2
# Processed by: cddbd v1.5.1PL0 Copyright (c) Steve Scherf et al.
# Submitted via: audiograbber 1.80
# Normalized: r1:DSETVAR1
#
DISCID=b0093f0c
DTITLE=Various Artist - Contigo Aprendí
DYEAR=1900
DGENRE=
TTITLE0=Armando Manzanero - Contigo Aprendí
TTITLE1=Los Panchos - Por El Amor De Una Mujer
TTITLE2=Antonio Machín - Angelitos Negros
TTITLE3=Johnny Mathis - Killing Me Softly With Her Song
TTITLE4=Lucho Gatica - Historia De Un Amor
TTITLE5=Lorenzo Gonzalez - Mil Noches
TTITLE6=Antonio Machin - Dos Gardenias
TTITLE7=Lucho Gatica - La Barca
TTITLE8=Nat King Cole - Acercate Más
TTITLE9=Mocedades - Tomame o dejame
TTITLE10=Los Panchos - Si tu me dices ven
TTITLE11=Moncho - Porque yo te amo
EXTD=
EXTT0=
EXTT1=
EXTT2=
EXTT3=
EXTT4=
EXTT5=
EXTT6=
EXTT7=
EXTT8=
EXTT9=
EXTT10=
EXTT11=
PLAYORDER=
